<svg viewBox="0 0 16 16" xmlns="http://www.w3.org/2000/svg" xmlns:xlink="http://www.w3.org/1999/xlink" width="16.000000" height="16.000000" fill="none" customFrame="#000000">
	<path id="+" d="M10.5331 5.73585L16 5.73585L16 10.0981L10.5331 10.0981L10.5331 16L5.48297 16L5.48297 10.0981L0 10.0981L0 5.73585L5.48297 5.73585L5.48297 0L10.5331 0L10.5331 5.73585Z" fill="rgb(255,255,255)" fill-rule="nonzero" />
	<path id="+" d="M11.0331 10.0981L16 10.0981L16 5.73585L10.5331 5.73585L10.5331 0L5.48297 0L5.48297 5.73585L0 5.73585L0 10.0981L5.48297 10.0981L5.48297 16L10.5331 16L10.5331 10.0981L11.0331 10.0981ZM10.0331 15.5L10.0331 9.59811L15.5 9.59811L15.5 6.23585L10.0331 6.23585L10.0331 0.5L5.98297 0.5L5.98297 6.23585L0.5 6.23585L0.5 9.59811L5.98297 9.59811L5.98297 15.5L10.0331 15.5Z" fill="rgb(237,22,49)" fill-rule="evenodd" />
</svg>
