<svg viewBox="0 0 18.8569 21.9999" xmlns="http://www.w3.org/2000/svg" xmlns:xlink="http://www.w3.org/1999/xlink" width="18.856934" height="21.999878" fill="none" customFrame="#000000">
	<g id="Сочетание 6">
		<path id="Vector" d="M4.32111 8.25L7.85682 8.25L7.85682 1.57143C7.85682 0.704 8.55925 0 9.42825 0C10.2973 0 10.9997 0.704 10.9997 1.57143L10.9997 8.25L14.5354 8.25C15.5867 8.25 16.11 9.52286 15.3683 10.2614L10.2611 15.3686C10.0317 15.5996 9.72997 15.7143 9.42825 15.7143C9.12654 15.7143 8.82483 15.5996 8.5954 15.3686L3.48825 10.2614C2.74654 9.52286 3.26983 8.25 4.32111 8.25Z" fill="rgb(255,255,255)" fill-rule="nonzero" />
		<path id="Vector" d="M17.2857 21.9999L1.57143 21.9999C0.702429 21.9999 0 21.2959 0 20.4285C0 19.561 0.702429 18.857 1.57143 18.857L17.2857 18.857C18.1547 18.857 18.8571 19.561 18.8571 20.4285C18.8571 21.2959 18.1547 21.9999 17.2857 21.9999Z" fill="rgb(255,255,255)" fill-rule="nonzero" />
	</g>
</svg>
