<svg viewBox="0 0 18.5049 18.4983" xmlns="http://www.w3.org/2000/svg" xmlns:xlink="http://www.w3.org/1999/xlink" width="18.504883" height="18.498322" fill="none" customFrame="#000000">
	<path id="Vector" d="M16.8966 1.60182C16.0149 0.720145 14.8636 0.275622 13.7038 0.251355C12.4832 0.224646 11.2554 0.66668 10.3324 1.59088L2.11056 9.81276C0.910682 11.0175 0.25 12.6157 0.25 14.3135L0.25 17.0339C0.25 17.7054 0.792862 18.2483 1.46443 18.2483L4.1848 18.2483C5.88262 18.2483 7.48084 17.5876 8.68677 16.3865L16.8977 8.17558C18.7073 6.36492 18.7073 3.4138 16.8966 1.60182ZM6.97084 14.6682C6.22637 15.4102 5.23537 15.8195 4.1849 15.8195L2.67891 15.8195L2.67891 14.3136C2.67891 13.263 3.08819 12.272 3.82899 11.5288L9.24912 6.10867L12.3897 9.24924L6.97084 14.6682ZM15.1793 6.45964L14.1069 7.53204L10.9664 4.39147L12.0387 3.31912C12.9058 2.452 14.3146 2.45444 15.1793 3.31912C16.044 4.18498 16.044 5.59374 15.1793 6.45964Z" fill="rgb(255,255,255)" fill-rule="nonzero" />
	<path id="Vector" d="M13.7038 0.251355C12.4832 0.224646 11.2554 0.66668 10.3324 1.59088L2.11056 9.81276C0.910682 11.0175 0.25 12.6157 0.25 14.3135L0.25 17.0339C0.25 17.7054 0.792862 18.2483 1.46443 18.2483L4.1848 18.2483C5.88262 18.2483 7.48084 17.5876 8.68677 16.3865L16.8977 8.17558C18.7073 6.36492 18.7073 3.4138 16.8966 1.60182C16.0149 0.720145 14.8636 0.275622 13.7038 0.251355ZM4.1849 15.8195L2.67891 15.8195L2.67891 14.3136C2.67891 13.263 3.08819 12.272 3.82899 11.5288L9.24912 6.10867L12.3897 9.24924L6.97084 14.6682C6.22637 15.4102 5.23537 15.8195 4.1849 15.8195ZM14.1069 7.53204L10.9664 4.39147L12.0387 3.31912C12.9058 2.452 14.3146 2.45444 15.1793 3.31912C16.044 4.18498 16.044 5.59374 15.1793 6.45964L14.1069 7.53204Z" fill-rule="nonzero" stroke="rgb(236,22,48)" stroke-width="0.500000" />
</svg>
