<svg viewBox="0 0 31 12.761" xmlns="http://www.w3.org/2000/svg" xmlns:xlink="http://www.w3.org/1999/xlink" width="31.000000" height="12.760986" fill="none" customFrame="#000000">
	<g id="Group 597">
		<path id="Vector" d="M18.3184 0L12.682 0C11.9038 0 11.2729 0.571293 11.2729 1.2761L11.2729 11.4849C11.2729 12.1897 11.9038 12.761 12.682 12.761L18.3184 12.761C19.8748 12.761 21.1366 11.6183 21.1366 10.2088L21.1366 2.5522C21.1366 1.14267 19.8748 0 18.3184 0ZM18.3184 10.2088L14.0911 10.2088L14.0911 2.5522L18.3184 2.5522L18.3184 10.2088Z" fill="rgb(236,22,48)" fill-rule="nonzero" />
		<path id="Vector" d="M31 2.5522L31 0L23.9545 0C23.1762 0 22.5454 0.571293 22.5454 1.2761L22.5454 12.761L25.3636 12.761L25.3636 7.65659L31 7.65659L31 5.10439L25.3636 5.10439L25.3636 2.5522L31 2.5522Z" fill="rgb(236,22,48)" fill-rule="nonzero" />
		<path id="Vector" d="M7.04545 0L1.40909 0C0.630832 0 0 0.571293 0 1.2761L0 12.761L2.81818 12.761L2.81818 8.93269L7.04545 8.93269C8.60188 8.93269 9.86364 7.79002 9.86364 6.38049L9.86364 2.5522C9.86364 1.14267 8.60188 0 7.04545 0ZM7.04545 6.38049L2.81818 6.38049L2.81818 2.5522L7.04545 2.5522L7.04545 6.38049Z" fill="rgb(236,22,48)" fill-rule="nonzero" />
	</g>
</svg>
